# xmcd
#
# Track frame offsets:
#   150
#   11194
#   21722
#   34529
#   44964
#   55105
#   64924
#   75512
#   86860
#   97817
#   113999
#   122099
#   130164
#   143088
#
# Disc length: 2018 seconds
#
# Revision: 0
# Processed by: cddbd v1.4PL0 Copyright (c) Steve Scherf et al.
# Submitted via: uFREEDB 1.6.0
#
DISCID=c407e00e
DTITLE=Willis, Chuck - I Remember Chuck Willis
DYEAR=1963
DGENRE=Blues
TTITLE0=What Am I Living For
TTITLE1=Hang Up My Rock and Roll Shoes
TTITLE2=Stop And Think
TTITLE3=From The Bottom Of My Heart
TTITLE4=Just One Kiss
TTITLE5=You'll Be My Love
TTITLE6=Keep A Drivin'
TTITLE7=C.C. Rider
TTITLE8=Betty and Dupree
TTITLE9=I'll Be So Glad When Your Heart Is Mine
TTITLE10=Big Drops Of Rain
TTITLE11=Sugar Sugar
TTITLE12=Love Of Loves
TTITLE13=My Baby
EXTD=
EXTT0=
EXTT1=
EXTT2=
EXTT3=
EXTT4=
EXTT5=
EXTT6=
EXTT7=
EXTT8=
EXTT9=
EXTT10=
EXTT11=
EXTT12=
EXTT13=
PLAYORDER=
